<svg id="Layer_3" data-name="Layer 3" xmlns="http://www.w3.org/2000/svg" viewBox="0 0 892.22 600"><defs><style>.cls-1{opacity:0.41;}.cls-2{fill:#c1c1c1;}</style></defs><title>syncydinklogo</title><g class="cls-1"><path class="cls-2" d="M1038.84,83h-110l-30.21,83c-2.4,6.6-9.77,12-16.37,12h-456c-6.6,0-10-5.4-7.63-12l30.21-83h-110L301.16,186.5h700ZM405.63,166c-2.4,6.6-9.77,12-16.37,12h-58c-6.6,0-10-5.4-7.63-12l18.93-52c2.4-6.6,9.77-12,16.37-12h58c6.6,0,10,5.4,7.63,12Zm570.9,14h-58c-6.6,0-10-5.4-7.63-12l18.93-52c2.4-6.6,9.77-12,16.37-12h58c6.6,0,10,5.4,7.63,12L992.9,168C990.5,174.6,983.13,180,976.53,180Z" transform="translate(-225.44 -83)"/></g><g class="cls-1"><path class="cls-2" d="M448.61,288.5h-110l-34.21,94h110ZM392.49,374h-58c-6.6,0-10-5.4-7.63-12l18.93-52c2.4-6.6,9.77-12,16.37-12h58c6.6,0,10,5.4,7.63,12l-18.93,52C406.45,368.6,399.09,374,392.49,374Z" transform="translate(-225.44 -83)"/></g><g class="cls-1"><path class="cls-2" d="M1038.61,288.5h-110l-34.21,94h110ZM979.76,376h-58c-6.6,0-10-5.4-7.63-12l18.93-52c2.4-6.6,9.77-12,16.37-12h58c6.6,0,10,5.4,7.63,12l-18.93,52C993.72,370.6,986.36,376,979.76,376Z" transform="translate(-225.44 -83)"/></g><g class="cls-1"><path class="cls-2" d="M414.3,382.5h-110l36.4,100h110Zm7.21,88.5h-58c-6.6,0-14-5.4-16.37-12l-18.93-52c-2.4-6.6,1-12,7.63-12h58c6.6,0,14,5.4,16.37,12l18.93,52C431.55,465.6,428.11,471,421.51,471Z" transform="translate(-225.44 -83)"/></g><g class="cls-1"><path class="cls-2" d="M1040.33,482.5h-110L914.14,527c-2.4,6.6-9.77,12-16.37,12h-456c-6.6,0-10-5.4-7.63-12l16.2-44.5h-110l-35.67,98h700ZM410.58,556c-2.4,6.6-9.77,12-16.37,12h-58c-6.6,0-10-5.4-7.63-12l18.93-52c2.4-6.6,9.77-12,16.37-12h58c6.6,0,10,5.4,7.63,12Zm570.9,14h-58c-6.6,0-10-5.4-7.63-12l18.93-52c2.4-6.6,9.77-12,16.37-12h58c6.6,0,10,5.4,7.63,12l-18.93,52C995.45,564.6,988.09,570,981.49,570Z" transform="translate(-225.44 -83)"/></g><g class="cls-1"><path class="cls-2" d="M304.35,580.5,341.65,683h110l-29.85-82c-2.4-6.6,1-12,7.63-12h456c6.6,0,14,5.4,16.37,12l29.85,82h110l-37.31-102.5ZM427.73,653c2.4,6.6-1,12-7.63,12h-58c-6.6,0-14-5.4-16.37-12l-18.93-52c-2.4-6.6,1-12,7.63-12h58c6.6,0,14,5.4,16.37,12Zm588.73,2c2.4,6.6-1,12-7.63,12h-58c-6.6,0-14-5.4-16.37-12l-18.93-52c-2.4-6.6,1-12,7.63-12h58c6.6,0,14,5.4,16.37,12Z" transform="translate(-225.44 -83)"/></g><g class="cls-1"><path class="cls-2" d="M1004.3,382.5h-110l36.4,100h110Zm5.94,90.5h-58c-6.6,0-14-5.4-16.37-12l-18.93-52c-2.4-6.6,1-12,7.63-12h58c6.6,0,14,5.4,16.37,12l18.93,52C1020.28,467.6,1016.84,473,1010.24,473Z" transform="translate(-225.44 -83)"/></g><g class="cls-1"><path class="cls-2" d="M432,243c-2.4-6.6,1-12,7.63-12h456c6.6,0,14,5.4,16.37,12l16.56,45.5h110l-37.12-102h-700l37.12,102h110Zm482.08-30c-2.4-6.6,1-12,7.63-12h58c6.6,0,14,5.4,16.37,12L1015,265c2.4,6.6-1,12-7.63,12h-58c-6.6,0-14-5.4-16.37-12ZM418.65,275h-58c-6.6,0-14-5.4-16.37-12l-18.93-52c-2.4-6.6,1-12,7.63-12h58c6.6,0,14,5.4,16.37,12l18.93,52C428.68,269.6,425.25,275,418.65,275Z" transform="translate(-225.44 -83)"/></g><g class="cls-1"><polygon class="cls-2" points="100.4 0 75.4 0 37.73 103.5 62.73 103.5 100.4 0"/></g><g class="cls-1"><polygon class="cls-2" points="63 103.5 38 103.5 75.13 205.5 100.13 205.5 63 103.5"/></g><g class="cls-1"><polygon class="cls-2" points="100.17 205.5 75.17 205.5 40.96 299.5 65.96 299.5 100.17 205.5"/></g><g class="cls-1"><polygon class="cls-2" points="65.86 299.5 40.86 299.5 77.26 399.5 102.26 399.5 65.86 299.5"/></g><g class="cls-1"><polygon class="cls-2" points="40.91 497.5 78.22 600 103.22 600 65.91 497.5 40.91 497.5"/></g><g class="cls-1"><polygon class="cls-2" points="101.9 399.5 76.9 399.5 41.23 497.5 66.23 497.5 101.9 399.5"/></g><g class="cls-1"><polygon class="cls-2" points="61.56 0 37.23 0 0.56 103.5 24.9 103.5 61.56 0"/></g><g class="cls-1"><polygon class="cls-2" points="25 103.5 0 103.5 37.13 205.5 62.13 205.5 25 103.5"/></g><g class="cls-1"><polygon class="cls-2" points="62.17 205.5 37.17 205.5 2.96 299.5 27.96 299.5 62.17 205.5"/></g><g class="cls-1"><polygon class="cls-2" points="63.9 399.5 38.9 399.5 3.23 497.5 28.23 497.5 63.9 399.5"/></g><g class="cls-1"><polygon class="cls-2" points="2.91 497.5 40.22 600 65.22 600 27.91 497.5 2.91 497.5"/></g><g class="cls-1"><polygon class="cls-2" points="27.86 299.5 2.86 299.5 39.26 399.5 64.26 399.5 27.86 299.5"/></g><g class="cls-1"><polygon class="cls-2" points="889.4 0 864.4 0 826.73 103.5 851.73 103.5 889.4 0"/></g><g class="cls-1"><polygon class="cls-2" points="852 103.5 827 103.5 864.13 205.5 889.13 205.5 852 103.5"/></g><g class="cls-1"><polygon class="cls-2" points="889.17 205.5 864.17 205.5 829.96 299.5 854.96 299.5 889.17 205.5"/></g><g class="cls-1"><polygon class="cls-2" points="854.86 299.5 829.86 299.5 866.26 399.5 891.26 399.5 854.86 299.5"/></g><g class="cls-1"><polygon class="cls-2" points="890.9 399.5 865.9 399.5 830.23 497.5 855.23 497.5 890.9 399.5"/></g><g class="cls-1"><polygon class="cls-2" points="829.91 497.5 867.22 600 892.22 600 854.91 497.5 829.91 497.5"/></g><g class="cls-1"><polygon class="cls-2" points="851.4 0 826.4 0 788.73 103.5 813.73 103.5 851.4 0"/></g><g class="cls-1"><polygon class="cls-2" points="814 103.5 789 103.5 826.13 205.5 851.13 205.5 814 103.5"/></g><g class="cls-1"><polygon class="cls-2" points="851.17 205.5 826.17 205.5 791.96 299.5 816.96 299.5 851.17 205.5"/></g><g class="cls-1"><polygon class="cls-2" points="816.86 299.5 791.86 299.5 828.26 399.5 853.26 399.5 816.86 299.5"/></g><g class="cls-1"><polygon class="cls-2" points="791.91 497.5 829.22 600 854.22 600 816.91 497.5 791.91 497.5"/></g><g class="cls-1"><polygon class="cls-2" points="852.9 399.5 827.9 399.5 792.23 497.5 817.23 497.5 852.9 399.5"/></g><g class="cls-1"><path class="cls-2" d="M506.52,397.2c3.36,2.72,6.8,4.64,11.44,4.64,5.12,0,7.68-2.72,7.68-6.08,0-4-4.64-5.76-8.88-7.36-5.52-2-11.6-4.64-11.6-11.2,0-6.24,5-11,13.36-11a19.4,19.4,0,0,1,12.08,4.4l-3.12,4.16c-2.64-2-5.44-3.44-8.88-3.44-4.88,0-7.12,2.64-7.12,5.6,0,3.6,4.24,5,8.64,6.72,5.6,2.08,11.84,4.4,11.84,11.76,0,6.32-5,11.6-14.24,11.6a23.4,23.4,0,0,1-14.48-5.36Z" transform="translate(-225.44 -83)"/><path class="cls-2" d="M541.4,417.28c4.4,0,7.2-3.52,8.8-8.32l.88-2.88-15.6-39h6.8l7.92,21.52c1.2,3.36,2.56,7.36,3.76,11h.32c1.12-3.52,2.24-7.52,3.28-11l7-21.52h6.4L556.28,409.2c-2.72,7.68-6.72,13.52-14.56,13.52a12.9,12.9,0,0,1-4.56-.8l1.28-5.2A11.47,11.47,0,0,0,541.4,417.28Z" transform="translate(-225.44 -83)"/><path class="cls-2" d="M578.44,367.12h5.44l.56,5.6h.24c3.68-3.68,7.68-6.56,13-6.56,8.16,0,11.84,5.28,11.84,15.2V406H603V382.24c0-7.28-2.24-10.4-7.36-10.4-4,0-6.72,2.08-10.64,6V406h-6.56Z" transform="translate(-225.44 -83)"/><path class="cls-2" d="M638,366.16a16,16,0,0,1,11.36,4.64L646.12,375c-2.32-2-4.72-3.44-7.84-3.44-7,0-12.16,6.08-12.16,15s4.88,14.88,12,14.88a13.86,13.86,0,0,0,9.12-3.92l3,4.32a19.25,19.25,0,0,1-12.64,5c-10.32,0-18.24-7.44-18.24-20.32C619.32,373.6,628,366.16,638,366.16Z" transform="translate(-225.44 -83)"/><path class="cls-2" d="M659.48,417.28c4.4,0,7.2-3.52,8.8-8.32l.88-2.88-15.6-39h6.8l7.92,21.52c1.2,3.36,2.56,7.36,3.76,11h.32c1.12-3.52,2.24-7.52,3.28-11l7-21.52H689L674.36,409.2c-2.72,7.68-6.72,13.52-14.56,13.52a12.9,12.9,0,0,1-4.56-.8l1.28-5.2A11.47,11.47,0,0,0,659.48,417.28Z" transform="translate(-225.44 -83)"/><path class="cls-2" d="M710.28,366.16c4.48,0,7.44,1.68,10.88,4.48l-.32-6.64V349h6.64v57H722l-.56-4.56h-.24c-3,3-7.2,5.52-11.76,5.52-9.76,0-16.08-7.36-16.08-20.32C693.4,374,701.4,366.16,710.28,366.16Zm.64,35.28c3.6,0,6.72-1.76,9.92-5.36V375.76c-3.28-3-6.24-4.08-9.44-4.08-6.24,0-11.2,6-11.2,14.88C700.2,395.84,704.12,401.44,710.92,401.44Z" transform="translate(-225.44 -83)"/><path class="cls-2" d="M739.4,354.88a4.57,4.57,0,0,1,9.12,0,4.57,4.57,0,0,1-9.12,0Zm1.2,12.24h6.56V406H740.6Z" transform="translate(-225.44 -83)"/><path class="cls-2" d="M760.28,367.12h5.44l.56,5.6h.24c3.68-3.68,7.68-6.56,13-6.56,8.16,0,11.84,5.28,11.84,15.2V406h-6.56V382.24c0-7.28-2.24-10.4-7.36-10.4-4,0-6.72,2.08-10.64,6V406h-6.56Z" transform="translate(-225.44 -83)"/><path class="cls-2" d="M804,349h6.48V387.6h.24l16.56-20.48h7.28l-13,15.6L836.36,406h-7.2L817.8,387.28l-7.28,8.48V406H804Z" transform="translate(-225.44 -83)"/></g></svg>